<?xml version="1.0" standalone="no"?>
<!DOCTYPE svg PUBLIC "-//W3C//DTD SVG 20010904//EN"
 "http://www.w3.org/TR/2001/REC-SVG-20010904/DTD/svg10.dtd">
<svg version="1.0" xmlns="http://www.w3.org/2000/svg"
 width="48.000000pt" height="49.000000pt" viewBox="0 0 48.000000 49.000000"
 preserveAspectRatio="xMidYMid meet">
<metadata>
Created by potrace 1.16, written by Peter Selinger 2001-2019
</metadata>
<g transform="translate(0.000000,49.000000) scale(0.100000,-0.100000)"
fill="#000000" stroke="none">
<path d="M371 336 c-11 -13 -11 -19 0 -32 22 -27 18 -127 -7 -161 -49 -66
-139 -93 -208 -62 -20 9 -29 9 -41 -1 -15 -12 -14 -15 10 -27 14 -8 48 -17 75
-20 101 -12 206 72 218 173 5 51 -3 104 -21 128 -12 16 -14 16 -26 2z"/>
</g>
</svg>
